<svg xmlns="http://www.w3.org/2000/svg" width="37" height="37" viewBox="0 0 37 37">
  <path id="Path_7186" data-name="Path 7186" d="M0-32.375a18.5,18.5,0,0,0-18.5,18.5A18.5,18.5,0,0,0,0,4.625a18.5,18.5,0,0,0,18.5-18.5A18.5,18.5,0,0,0,0-32.375ZM7.414-12.242-.679-4.148a2.312,2.312,0,0,1-3.27,0,2.312,2.312,0,0,1,0-3.27l6.464-6.457-6.461-6.461a2.312,2.312,0,0,1,0-3.27,2.312,2.312,0,0,1,3.27,0l8.094,8.094a2.306,2.306,0,0,1,.676,1.637A2.28,2.28,0,0,1,7.414-12.242Z" transform="translate(18.5 32.375)" fill="#868686"/>
</svg>
