<svg xmlns="http://www.w3.org/2000/svg" width="37" height="37" viewBox="0 0 37 37">
  <path id="Path_7187" data-name="Path 7187" d="M0-32.375a18.5,18.5,0,0,0-18.5,18.5A18.5,18.5,0,0,0,0,4.625a18.5,18.5,0,0,0,18.5-18.5A18.5,18.5,0,0,0,0-32.375ZM3.946-7.414a2.312,2.312,0,0,1,0,3.27,2.312,2.312,0,0,1-3.27,0l-8.094-8.094a2.306,2.306,0,0,1-.676-1.637,2.3,2.3,0,0,1,.677-1.635L.677-23.6a2.312,2.312,0,0,1,3.27,0,2.312,2.312,0,0,1,0,3.27l-6.455,6.458Z" transform="translate(18.5 32.375)" fill="#868686"/>
</svg>
