<svg xmlns="http://www.w3.org/2000/svg" width="22.171" height="22.171" viewBox="0 0 22.171 22.171">
  <path id="Path_7260" data-name="Path 7260" d="M2.085-15.75A11.085,11.085,0,0,0-9-4.665,11.085,11.085,0,0,0,2.085,6.421,11.085,11.085,0,0,0,13.171-4.665,11.085,11.085,0,0,0,2.085-15.75ZM6.528-3.686l-4.85,4.85A1.386,1.386,0,0,1-.281-.8L3.592-4.665-.279-8.536a1.385,1.385,0,0,1,0-1.959,1.385,1.385,0,0,1,1.959,0l4.85,4.85a1.382,1.382,0,0,1,.4.981A1.366,1.366,0,0,1,6.528-3.686Z" transform="translate(9 15.75)" fill="#fff"/>
</svg>
