<svg xmlns="http://www.w3.org/2000/svg" width="31.05" height="31.05" viewBox="0 0 31.05 31.05">
  <path id="Path_7259" data-name="Path 7259" d="M-5.024-12.827a25.9,25.9,0,0,0,11.4,11.4l3.8-3.8a1.517,1.517,0,0,1,1.779-.4,19.305,19.305,0,0,0,6.145.97,1.646,1.646,0,0,1,1.213.485A1.646,1.646,0,0,1,19.8-2.962V3.1a1.658,1.658,0,0,1-1.7,1.7A28.271,28.271,0,0,1-2.638-3.812a28.271,28.271,0,0,1-8.612-20.74,1.646,1.646,0,0,1,.485-1.213,1.646,1.646,0,0,1,1.213-.485h6.064a1.646,1.646,0,0,1,1.213.485,1.646,1.646,0,0,1,.485,1.213,19.305,19.305,0,0,0,.97,6.145,1.654,1.654,0,0,1-.4,1.779Z" transform="translate(11.25 26.25)" fill="#1f53ad"/>
</svg>
