<?xml version="1.0" encoding="UTF-8"?>
<svg id="Isolation_Mode" data-name="Isolation Mode" xmlns="http://www.w3.org/2000/svg" viewBox="0 0 206.47 59.72">
  <defs>
    <style>
      .cls-1 {
        fill: #f25236;
      }

      .cls-2 {
        fill: #00a450;
      }

      .cls-3 {
        fill: #333;
      }

      .cls-4 {
        fill: #42515a;
      }

      .cls-5 {
        fill: #40b15d;
      }

      .cls-6 {
        fill: none;
        stroke: #fff;
        stroke-linejoin: round;
        stroke-width: 6.16px;
      }
    </style>
  </defs>
  <g>
    <g>
      <g>
        <path class="cls-6" d="M79.32,54.73l-6.08-19.55c-.07-.19-.07-.37-.07-.59,0-1.26,.93-2.19,2.19-2.19,1.08,0,1.82,.67,2.11,1.63l4.49,14.58,3.23-7.31c.41-.93,1.08-1.45,2.08-1.45s1.67,.52,2.08,1.45l3.23,7.31,4.49-14.58c.3-.96,1.04-1.63,2.11-1.63,1.26,0,2.19,.93,2.19,2.19,0,.22-.04,.41-.07,.59l-6.08,19.55c-.33,1.11-1.08,1.71-2.15,1.71-.93,0-1.63-.45-2.04-1.37l-3.75-8.42-3.75,8.42c-.41,.93-1.11,1.37-2.04,1.37-1.08,0-1.82-.59-2.15-1.71Z"/>
        <path class="cls-6" d="M104.05,44.42c0-7.05,4.82-12.02,11.68-12.02s11.68,4.97,11.68,12.02-4.82,12.02-11.68,12.02-11.68-4.97-11.68-12.02Zm18.92,0c0-4.75-2.89-8.01-7.23-8.01s-7.23,3.26-7.23,8.01,2.89,8.01,7.23,8.01,7.23-3.26,7.23-8.01Z"/>
        <path class="cls-6" d="M132.2,54.25v-19.21c0-1.37,.89-2.26,2.26-2.26h4.6c6.12,0,9.68,3.08,9.68,8.09,0,3-1.48,5.34-4.19,6.86l3.64,5.16c.26,.37,.45,.85,.45,1.37,0,1.26-1,2.19-2.19,2.19-.78,0-1.45-.45-1.89-1.08l-4.3-6.16c-1.11,.22-2.34,.33-3.67,.37v4.67c0,1.26-1,2.19-2.19,2.19s-2.19-.93-2.19-2.19Zm12.09-13.39c0-2.3-1.08-4.08-5.23-4.08h-2.49v8.79c4.93-.19,7.72-1.78,7.72-4.71Z"/>
        <path class="cls-6" d="M153.71,54.25v-19.66c0-1.41,1-2.19,2.19-2.19s2.19,.78,2.19,2.19v6.94l7.98-8.31c.45-.48,1-.82,1.74-.82,1.26,0,2.19,.93,2.19,2.19,0,.63-.22,1.19-.63,1.56l-6.16,6.08,7.38,10.68c.26,.41,.45,.82,.45,1.34,0,1.26-1,2.19-2.19,2.19-.78,0-1.45-.45-1.89-1.08l-6.86-10.05-2,2v6.94c0,1.37-1,2.19-2.19,2.19s-2.19-.82-2.19-2.19Z"/>
        <path class="cls-6" d="M174.85,53.73c-.37-.37-.63-.89-.63-1.48,0-1.19,.89-2.08,2.04-2.08,.52,0,1,.19,1.37,.48,1.22,1.04,3.19,1.78,5.12,1.78,2.97,0,4.82-1.3,4.82-3.15s-1.78-2.78-5.16-3.52c-5.38-1.19-8.05-3.08-8.05-6.83,0-4.53,3.86-6.53,8.38-6.53,2.6,0,4.79,.67,6.31,1.26,.74,.3,1.26,1.04,1.26,1.93,0,1.15-.96,2.04-2.08,2.04-.45,0-1.19-.3-1.74-.52-.82-.3-1.93-.7-3.75-.7-2.49,0-3.93,.89-3.93,2.3,0,1.26,1.22,2,4.49,2.74,5.27,1.22,8.72,3.19,8.72,7.68,0,4.82-3.93,7.31-9.27,7.31-3.3,0-6.12-1.08-7.9-2.71Z"/>
      </g>
      <g>
        <path class="cls-6" d="M59.97,18.48c0-7.05,4.82-12.02,11.68-12.02,2.67,0,5.71,1.11,6.94,2.08,1.11,.85,1.3,1.37,1.3,2.08,0,1.15-.96,2.04-2.08,2.04-.48,0-1-.19-1.82-.82-.93-.7-2.37-1.37-4.34-1.37-4.34,0-7.23,3.26-7.23,8.01s2.52,8.01,6.86,8.01c3.19,0,5.71-1.63,6.31-4.64h-3.3c-1.08,0-2-.85-2-2s.85-2,2-2h5.53c1.26,0,2.19,.93,2.19,2.19,0,.37-.07,.82-.15,1.19-.93,5.94-4.97,9.27-10.57,9.27-6.86,0-11.31-4.97-11.31-12.02Z"/>
        <path class="cls-6" d="M85.38,28.31c0-.41,.11-.78,.26-1.08l8.61-19.33c.41-.89,1.08-1.45,2.08-1.45s1.67,.56,2.08,1.45l8.61,19.33c.15,.3,.26,.67,.26,1.08,0,1.26-.96,2.19-2.19,2.19-.93,0-1.63-.48-2.04-1.41l-1.63-3.71h-10.16l-1.67,3.82c-.37,.82-1.08,1.3-2,1.3-1.19,0-2.19-.93-2.19-2.19Zm14.28-6.94l-3.34-7.68-3.34,7.68h6.68Z"/>
        <path class="cls-6" d="M112.23,28.31V9.09c0-1.37,.89-2.26,2.26-2.26h4.6c6.12,0,9.68,3.08,9.68,8.09,0,3-1.48,5.34-4.19,6.86l3.64,5.16c.26,.37,.45,.85,.45,1.37,0,1.26-1,2.19-2.19,2.19-.78,0-1.45-.45-1.89-1.08l-4.3-6.16c-1.11,.22-2.34,.33-3.67,.37v4.67c0,1.26-1,2.19-2.19,2.19s-2.19-.93-2.19-2.19Zm12.09-13.39c0-2.3-1.08-4.08-5.23-4.08h-2.49v8.79c4.93-.19,7.72-1.78,7.72-4.71Z"/>
        <path class="cls-6" d="M133.74,27.64V9.09c0-1.37,.89-2.26,2.26-2.26h6.71c6.86,0,11.68,4.53,11.68,11.57s-4.82,11.57-11.68,11.57h-6.64c-1.41,0-2.34-.85-2.34-2.34Zm8.98-1.67c4.34,0,7.23-2.82,7.23-7.57s-2.89-7.57-7.23-7.57h-4.6v15.13h4.6Z"/>
        <path class="cls-6" d="M158.92,27.64V9.09c0-1.37,.89-2.26,2.26-2.26h13.91c1.15,0,2,.85,2,2s-.93,2-2,2h-11.8v4.53h10.5c1.15,0,2,.85,2,2s-.93,2-2,2h-10.5v6.6h12.17c1.15,0,2,.85,2,2s-.93,2-2,2h-14.21c-1.41,0-2.34-.85-2.34-2.34Z"/>
        <path class="cls-6" d="M181.29,28.31V8.54c0-1.45,.63-2.08,1.93-2.08,.93,0,1.6,.7,2.26,1.41l12.32,12.98c.67,.67,1.04,1.19,1.22,1.48V8.65c0-1.41,1-2.19,2.19-2.19s2.19,.78,2.19,2.19V28.42c0,1.45-.59,2.08-1.89,2.08-.93,0-1.67-.74-2.34-1.41l-12.02-12.65c-.67-.7-1.3-1.52-1.48-1.78v13.65c0,1.37-1,2.19-2.19,2.19s-2.19-.82-2.19-2.19Z"/>
      </g>
    </g>
    <g>
      <g>
        <path class="cls-6" d="M25.34,56.64c-.46,0-.84-.38-.84-.84v-3.35c0-.22,.09-.44,.25-.6l3.01-3.01V29.52l-5.29-5.29c-.16-.16-.25-.37-.25-.6V5.06c0-.47,.38-.84,.84-.84s.84,.38,.84,.84V23.29l5.29,5.29c.16,.16,.25,.37,.25,.6v20.01c0,.22-.09,.44-.25,.6l-3.01,3.01v3c0,.47-.38,.84-.84,.84Z"/>
        <path class="cls-6" d="M19.05,54.68c-.22,0-.43-.08-.6-.25-.33-.33-.33-.86,0-1.19l6.59-6.59v-12.28l-7.79-7.79-11.6,11.6c-.33,.33-.86,.33-1.19,0-.33-.33-.33-.86,0-1.19l12.2-12.2c.33-.33,.86-.33,1.19,0l8.63,8.63c.16,.16,.25,.37,.25,.6v12.97c0,.22-.09,.44-.25,.6l-6.84,6.84c-.17,.17-.38,.25-.6,.25Z"/>
        <path class="cls-6" d="M17.82,35.25c-.22,0-.43-.08-.6-.25-.33-.33-.33-.86,0-1.19l4.23-4.23c.33-.33,.86-.33,1.19,0,.33,.33,.33,.86,0,1.19l-4.23,4.23c-.17,.16-.38,.25-.6,.25Z"/>
        <path class="cls-6" d="M10.93,32.57c-.22,0-.43-.08-.6-.25l-6.21-6.21c-.33-.33-.33-.86,0-1.19,.33-.33,.86-.33,1.19,0l6.21,6.21c.33,.33,.33,.86,0,1.19-.17,.16-.38,.25-.6,.25Z"/>
        <path class="cls-6" d="M23.06,15.79c-.22,0-.43-.08-.6-.25l-6.95-6.95c-.33-.33-.33-.86,0-1.19,.33-.33,.86-.33,1.19,0l6.95,6.95c.33,.33,.33,.86,0,1.19-.16,.16-.38,.25-.6,.25Z"/>
        <path class="cls-6" d="M6.76,42.98c-.22,0-.43-.08-.6-.25-.33-.33-.33-.86,0-1.19l7.19-7.19v-5.58c0-.47,.38-.84,.84-.84s.84,.38,.84,.84v5.93c0,.22-.09,.44-.25,.6l-7.43,7.43c-.16,.17-.38,.25-.6,.25Z"/>
        <path class="cls-6" d="M17.14,26.36c-.47,0-.84-.38-.84-.84v-7.1l-5.71-5.71c-.33-.33-.33-.86,0-1.19,.33-.33,.86-.33,1.19,0l5.96,5.96c.16,.16,.25,.37,.25,.6v7.45c0,.47-.38,.84-.84,.84Z"/>
        <path class="cls-6" d="M3.92,32.96c-.22,0-.43-.08-.59-.25-.33-.33-.33-.86,0-1.19l3.7-3.7c.33-.33,.86-.33,1.19,0,.33,.33,.33,.86,0,1.19l-3.7,3.7c-.16,.16-.38,.25-.6,.25Z"/>
        <path class="cls-6" d="M24.82,26.23c-.22,0-.43-.08-.6-.25-.33-.33-.33-.86,0-1.19l2.22-2.22V3.92c0-.47,.38-.84,.84-.84s.84,.38,.84,.84V22.92c0,.22-.09,.44-.25,.6l-2.47,2.47c-.17,.17-.38,.25-.6,.25Z"/>
        <path class="cls-6" d="M15.71,27.79c-.22,0-.43-.08-.6-.25L6.08,18.52c-.33-.33-.33-.86,0-1.19,.33-.33,.86-.33,1.19,0l9.02,9.02c.33,.33,.33,.86,0,1.19-.16,.16-.38,.25-.6,.25Z"/>
        <path class="cls-6" d="M34.7,56.64c-.47,0-.84-.38-.84-.84v-3l-3.01-3.01c-.16-.16-.25-.37-.25-.6V29.17c0-.22,.09-.44,.25-.6l5.29-5.29V5.06c0-.47,.38-.84,.84-.84s.84,.38,.84,.84V23.63c0,.22-.09,.44-.25,.6l-5.29,5.29v19.32l3.01,3.01c.16,.16,.25,.37,.25,.6v3.35c0,.47-.38,.84-.84,.84Z"/>
        <path class="cls-6" d="M40.99,54.68c-.22,0-.43-.08-.6-.25l-6.84-6.84c-.16-.16-.25-.37-.25-.6v-12.97c0-.22,.09-.44,.25-.6l8.63-8.63c.33-.33,.86-.33,1.19,0l12.2,12.2c.33,.33,.33,.86,0,1.19-.33,.33-.86,.33-1.19,0l-11.6-11.6-7.79,7.79v12.28l6.59,6.59c.33,.33,.33,.86,0,1.19-.16,.17-.38,.25-.6,.25Z"/>
        <path class="cls-6" d="M42.22,35.25c-.22,0-.43-.08-.6-.25l-4.23-4.23c-.33-.33-.33-.86,0-1.19,.33-.33,.86-.33,1.19,0l4.23,4.23c.33,.33,.33,.86,0,1.19-.17,.16-.38,.25-.6,.25Z"/>
        <path class="cls-6" d="M49.12,32.57c-.22,0-.43-.08-.6-.25-.33-.33-.33-.86,0-1.19l6.21-6.21c.33-.33,.86-.33,1.19,0,.33,.33,.33,.86,0,1.19l-6.21,6.21c-.17,.16-.38,.25-.6,.25Z"/>
        <path class="cls-6" d="M36.98,15.79c-.22,0-.43-.08-.59-.25-.33-.33-.33-.86,0-1.19l6.95-6.95c.33-.33,.86-.33,1.19,0,.33,.33,.33,.86,0,1.19l-6.95,6.95c-.16,.16-.38,.25-.6,.25Z"/>
        <path class="cls-6" d="M53.29,42.98c-.22,0-.43-.08-.6-.25l-7.43-7.43c-.16-.16-.25-.37-.25-.6v-5.93c0-.47,.38-.84,.84-.84s.84,.38,.84,.84v5.58l7.19,7.19c.33,.33,.33,.86,0,1.19-.17,.17-.38,.25-.6,.25Z"/>
        <path class="cls-6" d="M42.9,26.36c-.47,0-.84-.38-.84-.84v-7.45c0-.22,.09-.44,.25-.6l5.96-5.96c.33-.33,.86-.33,1.19,0,.33,.33,.33,.86,0,1.19l-5.71,5.71v7.1c0,.47-.38,.84-.84,.84Z"/>
        <path class="cls-6" d="M56.12,32.96c-.22,0-.43-.08-.6-.25l-3.7-3.7c-.33-.33-.33-.86,0-1.19,.33-.33,.86-.33,1.19,0l3.7,3.7c.33,.33,.33,.86,0,1.19-.16,.16-.38,.25-.6,.25Z"/>
        <path class="cls-6" d="M35.22,26.23c-.22,0-.43-.08-.6-.25l-2.47-2.47c-.16-.16-.25-.37-.25-.6V3.92c0-.47,.38-.84,.84-.84s.84,.38,.84,.84V22.58l2.22,2.22c.33,.33,.33,.86,0,1.19-.16,.17-.38,.25-.6,.25Z"/>
        <path class="cls-6" d="M44.34,27.79c-.22,0-.43-.08-.59-.25-.33-.33-.33-.86,0-1.19l9.02-9.02c.33-.33,.86-.33,1.19,0,.33,.33,.33,.86,0,1.19l-9.02,9.02c-.16,.16-.38,.25-.6,.25Z"/>
      </g>
      <g>
        <path class="cls-6" d="M31.76,25.39c0,.99-.8,1.79-1.79,1.79s-1.79-.8-1.79-1.79,.8-1.79,1.79-1.79,1.79,.8,1.79,1.79Z"/>
        <circle class="cls-6" cx="29.97" cy="21.08" r="1.16"/>
        <g>
          <path class="cls-6" d="M12.71,17.02c0,.99-.8,1.79-1.79,1.79s-1.79-.8-1.79-1.79,.8-1.79,1.79-1.79,1.79,.8,1.79,1.79Z"/>
          <path class="cls-6" d="M9.86,24.03c0,.99-.8,1.79-1.79,1.79s-1.79-.8-1.79-1.79,.8-1.79,1.79-1.79,1.79,.8,1.79,1.79Z"/>
          <path class="cls-6" d="M17.49,12.1c0,.99-.8,1.79-1.79,1.79s-1.79-.8-1.79-1.79,.8-1.79,1.79-1.79,1.79,.8,1.79,1.79Z"/>
          <path class="cls-6" d="M21.88,21.4c0,.99-.8,1.79-1.79,1.79s-1.79-.8-1.79-1.79,.8-1.79,1.79-1.79,1.79,.8,1.79,1.79Z"/>
          <path class="cls-6" d="M19.28,29.96c0,.99-.8,1.79-1.79,1.79s-1.79-.8-1.79-1.79,.8-1.79,1.79-1.79,1.79,.8,1.79,1.79Z"/>
          <path class="cls-6" d="M26.2,7.16c0,.64-.52,1.17-1.16,1.17s-1.16-.52-1.16-1.17,.52-1.16,1.16-1.16,1.16,.52,1.16,1.16Z"/>
          <path class="cls-6" d="M21.35,8.64c0,.64-.52,1.16-1.16,1.16s-1.17-.52-1.17-1.16,.52-1.17,1.17-1.17,1.16,.52,1.16,1.17Z"/>
          <path class="cls-6" d="M7.45,33.28c0,.64-.52,1.16-1.16,1.16s-1.17-.52-1.17-1.16,.52-1.17,1.17-1.17,1.16,.52,1.16,1.17Z"/>
          <path class="cls-6" d="M9.24,37.73c0,.64-.52,1.16-1.16,1.16s-1.16-.52-1.16-1.16,.52-1.17,1.16-1.17,1.16,.52,1.16,1.17Z"/>
          <path class="cls-6" d="M23.22,33.69c0,.64-.52,1.16-1.17,1.16s-1.16-.52-1.16-1.16,.52-1.17,1.16-1.17,1.17,.52,1.17,1.17Z"/>
          <path class="cls-6" d="M12.35,27.51c0,.64-.52,1.17-1.17,1.17s-1.16-.52-1.16-1.17,.52-1.16,1.16-1.16,1.17,.52,1.17,1.16Z"/>
          <path class="cls-6" d="M15.08,20.57c0,.64-.52,1.16-1.17,1.16s-1.16-.52-1.16-1.16,.52-1.17,1.16-1.17,1.17,.52,1.17,1.17Z"/>
          <path class="cls-6" d="M19.98,15.46c0,.64-.52,1.16-1.17,1.16s-1.16-.52-1.16-1.16,.52-1.17,1.16-1.17,1.17,.52,1.17,1.17Z"/>
          <path class="cls-6" d="M26.35,17.92c0,.64-.52,1.17-1.16,1.17s-1.16-.52-1.16-1.17,.52-1.16,1.16-1.16,1.16,.52,1.16,1.16Z"/>
          <path class="cls-6" d="M24.38,27.82c0,.64-.52,1.16-1.16,1.16s-1.17-.52-1.17-1.16,.52-1.16,1.17-1.16,1.16,.52,1.16,1.16Z"/>
        </g>
        <g>
          <path class="cls-6" d="M47.21,17.02c0,.99,.8,1.79,1.79,1.79s1.79-.8,1.79-1.79-.8-1.79-1.79-1.79-1.79,.8-1.79,1.79Z"/>
          <path class="cls-6" d="M50.06,24.03c0,.99,.8,1.79,1.79,1.79s1.79-.8,1.79-1.79-.8-1.79-1.79-1.79-1.79,.8-1.79,1.79Z"/>
          <path class="cls-6" d="M42.43,12.1c0,.99,.8,1.79,1.79,1.79s1.79-.8,1.79-1.79-.8-1.79-1.79-1.79-1.79,.8-1.79,1.79Z"/>
          <path class="cls-6" d="M38.05,21.4c0,.99,.8,1.79,1.79,1.79s1.79-.8,1.79-1.79-.8-1.79-1.79-1.79-1.79,.8-1.79,1.79Z"/>
          <path class="cls-6" d="M40.64,29.96c0,.99,.8,1.79,1.79,1.79s1.79-.8,1.79-1.79-.8-1.79-1.79-1.79-1.79,.8-1.79,1.79Z"/>
          <path class="cls-6" d="M33.72,7.16c0,.64,.52,1.17,1.16,1.17s1.17-.52,1.17-1.17-.52-1.16-1.17-1.16-1.16,.52-1.16,1.16Z"/>
          <path class="cls-6" d="M38.57,8.64c0,.64,.52,1.16,1.16,1.16s1.17-.52,1.17-1.16-.52-1.17-1.17-1.17-1.16,.52-1.16,1.17Z"/>
          <path class="cls-6" d="M52.47,33.28c0,.64,.52,1.16,1.16,1.16s1.17-.52,1.17-1.16-.52-1.17-1.17-1.17-1.16,.52-1.16,1.17Z"/>
          <path class="cls-6" d="M50.68,37.73c0,.64,.52,1.16,1.16,1.16s1.16-.52,1.16-1.16-.52-1.17-1.16-1.17-1.16,.52-1.16,1.17Z"/>
          <path class="cls-6" d="M36.71,33.69c0,.64,.52,1.16,1.16,1.16s1.16-.52,1.16-1.16-.52-1.17-1.16-1.17-1.16,.52-1.16,1.17Z"/>
          <path class="cls-6" d="M47.57,27.51c0,.64,.52,1.17,1.16,1.17s1.16-.52,1.16-1.17-.52-1.16-1.16-1.16-1.16,.52-1.16,1.16Z"/>
          <path class="cls-6" d="M44.84,20.57c0,.64,.52,1.16,1.16,1.16s1.16-.52,1.16-1.16-.52-1.17-1.16-1.17-1.16,.52-1.16,1.17Z"/>
          <path class="cls-6" d="M39.94,15.46c0,.64,.52,1.16,1.17,1.16s1.16-.52,1.16-1.16-.52-1.17-1.16-1.17-1.17,.52-1.17,1.17Z"/>
          <path class="cls-6" d="M33.57,17.92c0,.64,.52,1.17,1.16,1.17s1.17-.52,1.17-1.17-.52-1.16-1.17-1.16-1.16,.52-1.16,1.16Z"/>
          <path class="cls-6" d="M35.54,27.82c0,.64,.52,1.16,1.17,1.16s1.16-.52,1.16-1.16-.52-1.16-1.16-1.16-1.17,.52-1.17,1.16Z"/>
        </g>
        <path class="cls-6" d="M31.13,12.63c0,.64-.52,1.17-1.16,1.17s-1.16-.52-1.16-1.17,.52-1.16,1.16-1.16,1.16,.52,1.16,1.16Z"/>
        <path class="cls-6" d="M31.13,6.83c0,.64-.52,1.16-1.16,1.16s-1.16-.52-1.16-1.16,.52-1.17,1.16-1.17,1.16,.52,1.16,1.17Z"/>
      </g>
    </g>
  </g>
  <g>
    <g>
      <g>
        <path class="cls-1" d="M79.32,54.73l-6.08-19.55c-.07-.19-.07-.37-.07-.59,0-1.26,.93-2.19,2.19-2.19,1.08,0,1.82,.67,2.11,1.63l4.49,14.58,3.23-7.31c.41-.93,1.08-1.45,2.08-1.45s1.67,.52,2.08,1.45l3.23,7.31,4.49-14.58c.3-.96,1.04-1.63,2.11-1.63,1.26,0,2.19,.93,2.19,2.19,0,.22-.04,.41-.07,.59l-6.08,19.55c-.33,1.11-1.08,1.71-2.15,1.71-.93,0-1.63-.45-2.04-1.37l-3.75-8.42-3.75,8.42c-.41,.93-1.11,1.37-2.04,1.37-1.08,0-1.82-.59-2.15-1.71Z"/>
        <path class="cls-3" d="M104.05,44.42c0-7.05,4.82-12.02,11.68-12.02s11.68,4.97,11.68,12.02-4.82,12.02-11.68,12.02-11.68-4.97-11.68-12.02Zm18.92,0c0-4.75-2.89-8.01-7.23-8.01s-7.23,3.26-7.23,8.01,2.89,8.01,7.23,8.01,7.23-3.26,7.23-8.01Z"/>
        <path class="cls-3" d="M132.2,54.25v-19.21c0-1.37,.89-2.26,2.26-2.26h4.6c6.12,0,9.68,3.08,9.68,8.09,0,3-1.48,5.34-4.19,6.86l3.64,5.16c.26,.37,.45,.85,.45,1.37,0,1.26-1,2.19-2.19,2.19-.78,0-1.45-.45-1.89-1.08l-4.3-6.16c-1.11,.22-2.34,.33-3.67,.37v4.67c0,1.26-1,2.19-2.19,2.19s-2.19-.93-2.19-2.19Zm12.09-13.39c0-2.3-1.08-4.08-5.23-4.08h-2.49v8.79c4.93-.19,7.72-1.78,7.72-4.71Z"/>
        <path class="cls-3" d="M153.71,54.25v-19.66c0-1.41,1-2.19,2.19-2.19s2.19,.78,2.19,2.19v6.94l7.98-8.31c.45-.48,1-.82,1.74-.82,1.26,0,2.19,.93,2.19,2.19,0,.63-.22,1.19-.63,1.56l-6.16,6.08,7.38,10.68c.26,.41,.45,.82,.45,1.34,0,1.26-1,2.19-2.19,2.19-.78,0-1.45-.45-1.89-1.08l-6.86-10.05-2,2v6.94c0,1.37-1,2.19-2.19,2.19s-2.19-.82-2.19-2.19Z"/>
        <path class="cls-3" d="M174.85,53.73c-.37-.37-.63-.89-.63-1.48,0-1.19,.89-2.08,2.04-2.08,.52,0,1,.19,1.37,.48,1.22,1.04,3.19,1.78,5.12,1.78,2.97,0,4.82-1.3,4.82-3.15s-1.78-2.78-5.16-3.52c-5.38-1.19-8.05-3.08-8.05-6.83,0-4.53,3.86-6.53,8.38-6.53,2.6,0,4.79,.67,6.31,1.26,.74,.3,1.26,1.04,1.26,1.93,0,1.15-.96,2.04-2.08,2.04-.45,0-1.19-.3-1.74-.52-.82-.3-1.93-.7-3.75-.7-2.49,0-3.93,.89-3.93,2.3,0,1.26,1.22,2,4.49,2.74,5.27,1.22,8.72,3.19,8.72,7.68,0,4.82-3.93,7.31-9.27,7.31-3.3,0-6.12-1.08-7.9-2.71Z"/>
      </g>
      <g>
        <path class="cls-5" d="M59.97,18.48c0-7.05,4.82-12.02,11.68-12.02,2.67,0,5.71,1.11,6.94,2.08,1.11,.85,1.3,1.37,1.3,2.08,0,1.15-.96,2.04-2.08,2.04-.48,0-1-.19-1.82-.82-.93-.7-2.37-1.37-4.34-1.37-4.34,0-7.23,3.26-7.23,8.01s2.52,8.01,6.86,8.01c3.19,0,5.71-1.63,6.31-4.64h-3.3c-1.08,0-2-.85-2-2s.85-2,2-2h5.53c1.26,0,2.19,.93,2.19,2.19,0,.37-.07,.82-.15,1.19-.93,5.94-4.97,9.27-10.57,9.27-6.86,0-11.31-4.97-11.31-12.02Z"/>
        <path class="cls-3" d="M85.38,28.31c0-.41,.11-.78,.26-1.08l8.61-19.33c.41-.89,1.08-1.45,2.08-1.45s1.67,.56,2.08,1.45l8.61,19.33c.15,.3,.26,.67,.26,1.08,0,1.26-.96,2.19-2.19,2.19-.93,0-1.63-.48-2.04-1.41l-1.63-3.71h-10.16l-1.67,3.82c-.37,.82-1.08,1.3-2,1.3-1.19,0-2.19-.93-2.19-2.19Zm14.28-6.94l-3.34-7.68-3.34,7.68h6.68Z"/>
        <path class="cls-3" d="M112.23,28.31V9.09c0-1.37,.89-2.26,2.26-2.26h4.6c6.12,0,9.68,3.08,9.68,8.09,0,3-1.48,5.34-4.19,6.86l3.64,5.16c.26,.37,.45,.85,.45,1.37,0,1.26-1,2.19-2.19,2.19-.78,0-1.45-.45-1.89-1.08l-4.3-6.16c-1.11,.22-2.34,.33-3.67,.37v4.67c0,1.26-1,2.19-2.19,2.19s-2.19-.93-2.19-2.19Zm12.09-13.39c0-2.3-1.08-4.08-5.23-4.08h-2.49v8.79c4.93-.19,7.72-1.78,7.72-4.71Z"/>
        <path class="cls-3" d="M133.74,27.64V9.09c0-1.37,.89-2.26,2.26-2.26h6.71c6.86,0,11.68,4.53,11.68,11.57s-4.82,11.57-11.68,11.57h-6.64c-1.41,0-2.34-.85-2.34-2.34Zm8.98-1.67c4.34,0,7.23-2.82,7.23-7.57s-2.89-7.57-7.23-7.57h-4.6v15.13h4.6Z"/>
        <path class="cls-3" d="M158.92,27.64V9.09c0-1.37,.89-2.26,2.26-2.26h13.91c1.15,0,2,.85,2,2s-.93,2-2,2h-11.8v4.53h10.5c1.15,0,2,.85,2,2s-.93,2-2,2h-10.5v6.6h12.17c1.15,0,2,.85,2,2s-.93,2-2,2h-14.21c-1.41,0-2.34-.85-2.34-2.34Z"/>
        <path class="cls-3" d="M181.29,28.31V8.54c0-1.45,.63-2.08,1.93-2.08,.93,0,1.6,.7,2.26,1.41l12.32,12.98c.67,.67,1.04,1.19,1.22,1.48V8.65c0-1.41,1-2.19,2.19-2.19s2.19,.78,2.19,2.19V28.42c0,1.45-.59,2.08-1.89,2.08-.93,0-1.67-.74-2.34-1.41l-12.02-12.65c-.67-.7-1.3-1.52-1.48-1.78v13.65c0,1.37-1,2.19-2.19,2.19s-2.19-.82-2.19-2.19Z"/>
      </g>
    </g>
    <g>
      <g>
        <path class="cls-4" d="M25.34,56.64c-.46,0-.84-.38-.84-.84v-3.35c0-.22,.09-.44,.25-.6l3.01-3.01V29.52l-5.29-5.29c-.16-.16-.25-.37-.25-.6V5.06c0-.47,.38-.84,.84-.84s.84,.38,.84,.84V23.29l5.29,5.29c.16,.16,.25,.37,.25,.6v20.01c0,.22-.09,.44-.25,.6l-3.01,3.01v3c0,.47-.38,.84-.84,.84Z"/>
        <path class="cls-4" d="M19.05,54.68c-.22,0-.43-.08-.6-.25-.33-.33-.33-.86,0-1.19l6.59-6.59v-12.28l-7.79-7.79-11.6,11.6c-.33,.33-.86,.33-1.19,0-.33-.33-.33-.86,0-1.19l12.2-12.2c.33-.33,.86-.33,1.19,0l8.63,8.63c.16,.16,.25,.37,.25,.6v12.97c0,.22-.09,.44-.25,.6l-6.84,6.84c-.17,.17-.38,.25-.6,.25Z"/>
        <path class="cls-4" d="M17.82,35.25c-.22,0-.43-.08-.6-.25-.33-.33-.33-.86,0-1.19l4.23-4.23c.33-.33,.86-.33,1.19,0,.33,.33,.33,.86,0,1.19l-4.23,4.23c-.17,.16-.38,.25-.6,.25Z"/>
        <path class="cls-4" d="M10.93,32.57c-.22,0-.43-.08-.6-.25l-6.21-6.21c-.33-.33-.33-.86,0-1.19,.33-.33,.86-.33,1.19,0l6.21,6.21c.33,.33,.33,.86,0,1.19-.17,.16-.38,.25-.6,.25Z"/>
        <path class="cls-4" d="M23.06,15.79c-.22,0-.43-.08-.6-.25l-6.95-6.95c-.33-.33-.33-.86,0-1.19,.33-.33,.86-.33,1.19,0l6.95,6.95c.33,.33,.33,.86,0,1.19-.16,.16-.38,.25-.6,.25Z"/>
        <path class="cls-4" d="M6.76,42.98c-.22,0-.43-.08-.6-.25-.33-.33-.33-.86,0-1.19l7.19-7.19v-5.58c0-.47,.38-.84,.84-.84s.84,.38,.84,.84v5.93c0,.22-.09,.44-.25,.6l-7.43,7.43c-.16,.17-.38,.25-.6,.25Z"/>
        <path class="cls-4" d="M17.14,26.36c-.47,0-.84-.38-.84-.84v-7.1l-5.71-5.71c-.33-.33-.33-.86,0-1.19,.33-.33,.86-.33,1.19,0l5.96,5.96c.16,.16,.25,.37,.25,.6v7.45c0,.47-.38,.84-.84,.84Z"/>
        <path class="cls-4" d="M3.92,32.96c-.22,0-.43-.08-.59-.25-.33-.33-.33-.86,0-1.19l3.7-3.7c.33-.33,.86-.33,1.19,0,.33,.33,.33,.86,0,1.19l-3.7,3.7c-.16,.16-.38,.25-.6,.25Z"/>
        <path class="cls-4" d="M24.82,26.23c-.22,0-.43-.08-.6-.25-.33-.33-.33-.86,0-1.19l2.22-2.22V3.92c0-.47,.38-.84,.84-.84s.84,.38,.84,.84V22.92c0,.22-.09,.44-.25,.6l-2.47,2.47c-.17,.17-.38,.25-.6,.25Z"/>
        <path class="cls-4" d="M15.71,27.79c-.22,0-.43-.08-.6-.25L6.08,18.52c-.33-.33-.33-.86,0-1.19,.33-.33,.86-.33,1.19,0l9.02,9.02c.33,.33,.33,.86,0,1.19-.16,.16-.38,.25-.6,.25Z"/>
        <path class="cls-4" d="M34.7,56.64c-.47,0-.84-.38-.84-.84v-3l-3.01-3.01c-.16-.16-.25-.37-.25-.6V29.17c0-.22,.09-.44,.25-.6l5.29-5.29V5.06c0-.47,.38-.84,.84-.84s.84,.38,.84,.84V23.63c0,.22-.09,.44-.25,.6l-5.29,5.29v19.32l3.01,3.01c.16,.16,.25,.37,.25,.6v3.35c0,.47-.38,.84-.84,.84Z"/>
        <path class="cls-4" d="M40.99,54.68c-.22,0-.43-.08-.6-.25l-6.84-6.84c-.16-.16-.25-.37-.25-.6v-12.97c0-.22,.09-.44,.25-.6l8.63-8.63c.33-.33,.86-.33,1.19,0l12.2,12.2c.33,.33,.33,.86,0,1.19-.33,.33-.86,.33-1.19,0l-11.6-11.6-7.79,7.79v12.28l6.59,6.59c.33,.33,.33,.86,0,1.19-.16,.17-.38,.25-.6,.25Z"/>
        <path class="cls-4" d="M42.22,35.25c-.22,0-.43-.08-.6-.25l-4.23-4.23c-.33-.33-.33-.86,0-1.19,.33-.33,.86-.33,1.19,0l4.23,4.23c.33,.33,.33,.86,0,1.19-.17,.16-.38,.25-.6,.25Z"/>
        <path class="cls-4" d="M49.12,32.57c-.22,0-.43-.08-.6-.25-.33-.33-.33-.86,0-1.19l6.21-6.21c.33-.33,.86-.33,1.19,0,.33,.33,.33,.86,0,1.19l-6.21,6.21c-.17,.16-.38,.25-.6,.25Z"/>
        <path class="cls-4" d="M36.98,15.79c-.22,0-.43-.08-.59-.25-.33-.33-.33-.86,0-1.19l6.95-6.95c.33-.33,.86-.33,1.19,0,.33,.33,.33,.86,0,1.19l-6.95,6.95c-.16,.16-.38,.25-.6,.25Z"/>
        <path class="cls-4" d="M53.29,42.98c-.22,0-.43-.08-.6-.25l-7.43-7.43c-.16-.16-.25-.37-.25-.6v-5.93c0-.47,.38-.84,.84-.84s.84,.38,.84,.84v5.58l7.19,7.19c.33,.33,.33,.86,0,1.19-.17,.17-.38,.25-.6,.25Z"/>
        <path class="cls-4" d="M42.9,26.36c-.47,0-.84-.38-.84-.84v-7.45c0-.22,.09-.44,.25-.6l5.96-5.96c.33-.33,.86-.33,1.19,0,.33,.33,.33,.86,0,1.19l-5.71,5.71v7.1c0,.47-.38,.84-.84,.84Z"/>
        <path class="cls-4" d="M56.12,32.96c-.22,0-.43-.08-.6-.25l-3.7-3.7c-.33-.33-.33-.86,0-1.19,.33-.33,.86-.33,1.19,0l3.7,3.7c.33,.33,.33,.86,0,1.19-.16,.16-.38,.25-.6,.25Z"/>
        <path class="cls-4" d="M35.22,26.23c-.22,0-.43-.08-.6-.25l-2.47-2.47c-.16-.16-.25-.37-.25-.6V3.92c0-.47,.38-.84,.84-.84s.84,.38,.84,.84V22.58l2.22,2.22c.33,.33,.33,.86,0,1.19-.16,.17-.38,.25-.6,.25Z"/>
        <path class="cls-4" d="M44.34,27.79c-.22,0-.43-.08-.59-.25-.33-.33-.33-.86,0-1.19l9.02-9.02c.33-.33,.86-.33,1.19,0,.33,.33,.33,.86,0,1.19l-9.02,9.02c-.16,.16-.38,.25-.6,.25Z"/>
      </g>
      <g>
        <path class="cls-2" d="M31.76,25.39c0,.99-.8,1.79-1.79,1.79s-1.79-.8-1.79-1.79,.8-1.79,1.79-1.79,1.79,.8,1.79,1.79Z"/>
        <circle class="cls-2" cx="29.97" cy="21.08" r="1.16"/>
        <g>
          <path class="cls-2" d="M12.71,17.02c0,.99-.8,1.79-1.79,1.79s-1.79-.8-1.79-1.79,.8-1.79,1.79-1.79,1.79,.8,1.79,1.79Z"/>
          <path class="cls-2" d="M9.86,24.03c0,.99-.8,1.79-1.79,1.79s-1.79-.8-1.79-1.79,.8-1.79,1.79-1.79,1.79,.8,1.79,1.79Z"/>
          <path class="cls-2" d="M17.49,12.1c0,.99-.8,1.79-1.79,1.79s-1.79-.8-1.79-1.79,.8-1.79,1.79-1.79,1.79,.8,1.79,1.79Z"/>
          <path class="cls-2" d="M21.88,21.4c0,.99-.8,1.79-1.79,1.79s-1.79-.8-1.79-1.79,.8-1.79,1.79-1.79,1.79,.8,1.79,1.79Z"/>
          <path class="cls-2" d="M19.28,29.96c0,.99-.8,1.79-1.79,1.79s-1.79-.8-1.79-1.79,.8-1.79,1.79-1.79,1.79,.8,1.79,1.79Z"/>
          <path class="cls-2" d="M26.2,7.16c0,.64-.52,1.17-1.16,1.17s-1.16-.52-1.16-1.17,.52-1.16,1.16-1.16,1.16,.52,1.16,1.16Z"/>
          <path class="cls-2" d="M21.35,8.64c0,.64-.52,1.16-1.16,1.16s-1.17-.52-1.17-1.16,.52-1.17,1.17-1.17,1.16,.52,1.16,1.17Z"/>
          <path class="cls-2" d="M7.45,33.28c0,.64-.52,1.16-1.16,1.16s-1.17-.52-1.17-1.16,.52-1.17,1.17-1.17,1.16,.52,1.16,1.17Z"/>
          <path class="cls-2" d="M9.24,37.73c0,.64-.52,1.16-1.16,1.16s-1.16-.52-1.16-1.16,.52-1.17,1.16-1.17,1.16,.52,1.16,1.17Z"/>
          <path class="cls-2" d="M23.22,33.69c0,.64-.52,1.16-1.17,1.16s-1.16-.52-1.16-1.16,.52-1.17,1.16-1.17,1.17,.52,1.17,1.17Z"/>
          <path class="cls-2" d="M12.35,27.51c0,.64-.52,1.17-1.17,1.17s-1.16-.52-1.16-1.17,.52-1.16,1.16-1.16,1.17,.52,1.17,1.16Z"/>
          <path class="cls-2" d="M15.08,20.57c0,.64-.52,1.16-1.17,1.16s-1.16-.52-1.16-1.16,.52-1.17,1.16-1.17,1.17,.52,1.17,1.17Z"/>
          <path class="cls-2" d="M19.98,15.46c0,.64-.52,1.16-1.17,1.16s-1.16-.52-1.16-1.16,.52-1.17,1.16-1.17,1.17,.52,1.17,1.17Z"/>
          <path class="cls-2" d="M26.35,17.92c0,.64-.52,1.17-1.16,1.17s-1.16-.52-1.16-1.17,.52-1.16,1.16-1.16,1.16,.52,1.16,1.16Z"/>
          <path class="cls-2" d="M24.38,27.82c0,.64-.52,1.16-1.16,1.16s-1.17-.52-1.17-1.16,.52-1.16,1.17-1.16,1.16,.52,1.16,1.16Z"/>
        </g>
        <g>
          <path class="cls-2" d="M47.21,17.02c0,.99,.8,1.79,1.79,1.79s1.79-.8,1.79-1.79-.8-1.79-1.79-1.79-1.79,.8-1.79,1.79Z"/>
          <path class="cls-2" d="M50.06,24.03c0,.99,.8,1.79,1.79,1.79s1.79-.8,1.79-1.79-.8-1.79-1.79-1.79-1.79,.8-1.79,1.79Z"/>
          <path class="cls-2" d="M42.43,12.1c0,.99,.8,1.79,1.79,1.79s1.79-.8,1.79-1.79-.8-1.79-1.79-1.79-1.79,.8-1.79,1.79Z"/>
          <path class="cls-2" d="M38.05,21.4c0,.99,.8,1.79,1.79,1.79s1.79-.8,1.79-1.79-.8-1.79-1.79-1.79-1.79,.8-1.79,1.79Z"/>
          <path class="cls-2" d="M40.64,29.96c0,.99,.8,1.79,1.79,1.79s1.79-.8,1.79-1.79-.8-1.79-1.79-1.79-1.79,.8-1.79,1.79Z"/>
          <path class="cls-2" d="M33.72,7.16c0,.64,.52,1.17,1.16,1.17s1.17-.52,1.17-1.17-.52-1.16-1.17-1.16-1.16,.52-1.16,1.16Z"/>
          <path class="cls-2" d="M38.57,8.64c0,.64,.52,1.16,1.16,1.16s1.17-.52,1.17-1.16-.52-1.17-1.17-1.17-1.16,.52-1.16,1.17Z"/>
          <path class="cls-2" d="M52.47,33.28c0,.64,.52,1.16,1.16,1.16s1.17-.52,1.17-1.16-.52-1.17-1.17-1.17-1.16,.52-1.16,1.17Z"/>
          <path class="cls-2" d="M50.68,37.73c0,.64,.52,1.16,1.16,1.16s1.16-.52,1.16-1.16-.52-1.17-1.16-1.17-1.16,.52-1.16,1.17Z"/>
          <path class="cls-2" d="M36.71,33.69c0,.64,.52,1.16,1.16,1.16s1.16-.52,1.16-1.16-.52-1.17-1.16-1.17-1.16,.52-1.16,1.17Z"/>
          <path class="cls-2" d="M47.57,27.51c0,.64,.52,1.17,1.16,1.17s1.16-.52,1.16-1.17-.52-1.16-1.16-1.16-1.16,.52-1.16,1.16Z"/>
          <path class="cls-2" d="M44.84,20.57c0,.64,.52,1.16,1.16,1.16s1.16-.52,1.16-1.16-.52-1.17-1.16-1.17-1.16,.52-1.16,1.17Z"/>
          <path class="cls-2" d="M39.94,15.46c0,.64,.52,1.16,1.17,1.16s1.16-.52,1.16-1.16-.52-1.17-1.16-1.17-1.17,.52-1.17,1.17Z"/>
          <path class="cls-2" d="M33.57,17.92c0,.64,.52,1.17,1.16,1.17s1.17-.52,1.17-1.17-.52-1.16-1.17-1.16-1.16,.52-1.16,1.16Z"/>
          <path class="cls-2" d="M35.54,27.82c0,.64,.52,1.16,1.17,1.16s1.16-.52,1.16-1.16-.52-1.16-1.16-1.16-1.17,.52-1.17,1.16Z"/>
        </g>
        <path class="cls-2" d="M31.13,12.63c0,.64-.52,1.17-1.16,1.17s-1.16-.52-1.16-1.17,.52-1.16,1.16-1.16,1.16,.52,1.16,1.16Z"/>
        <path class="cls-2" d="M31.13,6.83c0,.64-.52,1.16-1.16,1.16s-1.16-.52-1.16-1.16,.52-1.17,1.16-1.17,1.16,.52,1.16,1.17Z"/>
      </g>
    </g>
  </g>
</svg>