<svg xmlns="http://www.w3.org/2000/svg" width="16" height="16" viewBox="0 0 16 16">
  <path id="Path_125" data-name="Path 125" d="M15-3H10.828L9.414-1.586A1.989,1.989,0,0,1,8-1a1.986,1.986,0,0,1-1.414-.586L5.172-3H1A1,1,0,0,0,0-2V1A1,1,0,0,0,1,2H15a1,1,0,0,0,1-1V-2A1,1,0,0,0,15-3ZM13.5.25a.752.752,0,0,1-.75-.75.752.752,0,0,1,.75-.75.752.752,0,0,1,.75.75A.752.752,0,0,1,13.5.25ZM7.294-2.294A.986.986,0,0,0,8-2a1,1,0,0,0,.707-.293l4-4a1,1,0,0,0,0-1.414,1,1,0,0,0-1.414,0L9-5.413V-13a1,1,0,0,0-1-1,1,1,0,0,0-1,1v7.587L4.706-7.706a1,1,0,0,0-1.414,0,1,1,0,0,0,0,1.414Z" transform="translate(0 14)" fill="#fff"/>
</svg>
