<svg xmlns="http://www.w3.org/2000/svg" width="31.5" height="31.5" viewBox="0 0 31.5 31.5">
  <path id="Path_112" data-name="Path 112" d="M-9.434-23.133A26.279,26.279,0,0,0,2.133-11.566l3.855-3.855a1.539,1.539,0,0,1,1.8-.41,19.585,19.585,0,0,0,6.234.984,1.669,1.669,0,0,1,1.23.492,1.669,1.669,0,0,1,.492,1.23v6.152a1.669,1.669,0,0,1-.492,1.23,1.669,1.669,0,0,1-1.23.492A28.681,28.681,0,0,1-7.014-13.986,28.681,28.681,0,0,1-15.75-35.027a1.669,1.669,0,0,1,.492-1.23,1.669,1.669,0,0,1,1.23-.492h6.152a1.669,1.669,0,0,1,1.23.492,1.669,1.669,0,0,1,.492,1.23,19.585,19.585,0,0,0,.984,6.234,1.678,1.678,0,0,1-.41,1.8Z" transform="translate(15.75 36.75)" fill="#1f53ad"/>
</svg>
